<mxfile host="app.diagrams.net" modified="2022-12-19T10:43:43.370Z" agent="5.0 (Windows NT 10.0; Win64; x64) AppleWebKit/537.36 (KHTML, like Gecko) Chrome/108.0.0.0 Safari/537.36" etag="4rUWMxVul8rCbS7ryJXD" version="20.6.0" type="github">
  <diagram id="KW3WOMyOpie78aPgWBkR" name="Page-1">
    <mxGraphModel dx="1100" dy="681" grid="1" gridSize="10" guides="1" tooltips="1" connect="1" arrows="1" fold="1" page="1" pageScale="1" pageWidth="850" pageHeight="1100" math="0" shadow="0">
      <root>
        <mxCell id="0" />
        <mxCell id="1" parent="0" />
        <mxCell id="C2JzApIpA7sHAra7oiWG-1" value="User" style="shape=umlActor;verticalLabelPosition=bottom;verticalAlign=top;html=1;outlineConnect=0;" parent="1" vertex="1">
          <mxGeometry x="80" y="330" width="30" height="60" as="geometry" />
        </mxCell>
        <mxCell id="C2JzApIpA7sHAra7oiWG-6" value="" style="group" parent="1" vertex="1" connectable="0">
          <mxGeometry x="210" y="30" width="390" height="890" as="geometry" />
        </mxCell>
        <mxCell id="C2JzApIpA7sHAra7oiWG-2" value="" style="rounded=0;whiteSpace=wrap;html=1;" parent="C2JzApIpA7sHAra7oiWG-6" vertex="1">
          <mxGeometry width="390" height="890" as="geometry" />
        </mxCell>
        <mxCell id="C2JzApIpA7sHAra7oiWG-3" value="&lt;i&gt;Offline Mode Feature &lt;/i&gt;BINUSMAYA 7 &lt;i&gt;Mobile&lt;/i&gt;" style="text;html=1;strokeColor=none;fillColor=none;align=center;verticalAlign=middle;whiteSpace=wrap;rounded=0;" parent="C2JzApIpA7sHAra7oiWG-6" vertex="1">
          <mxGeometry x="129" width="132" height="50" as="geometry" />
        </mxCell>
        <mxCell id="TFS_bIiit2Vcpf-9XEwG-1" value="Melakukan sinkronisasi data &lt;i&gt;role, mycourse, classsession, &lt;/i&gt;dan&lt;i&gt;&amp;nbsp;forum&lt;/i&gt;" style="ellipse;whiteSpace=wrap;html=1;" vertex="1" parent="C2JzApIpA7sHAra7oiWG-6">
          <mxGeometry x="15" y="70" width="160" height="80" as="geometry" />
        </mxCell>
        <mxCell id="TFS_bIiit2Vcpf-9XEwG-2" value="Melihat halaman &lt;i&gt;Offline Mode Configuration&lt;/i&gt;" style="ellipse;whiteSpace=wrap;html=1;" vertex="1" parent="C2JzApIpA7sHAra7oiWG-6">
          <mxGeometry x="17.5" y="530" width="170" height="80" as="geometry" />
        </mxCell>
        <mxCell id="TFS_bIiit2Vcpf-9XEwG-3" value="Mengubah &lt;i&gt;Role&lt;/i&gt;&amp;nbsp;User saat &lt;i&gt;offline&lt;/i&gt;" style="ellipse;whiteSpace=wrap;html=1;" vertex="1" parent="C2JzApIpA7sHAra7oiWG-6">
          <mxGeometry x="12.5" y="160" width="170" height="80" as="geometry" />
        </mxCell>
        <mxCell id="TFS_bIiit2Vcpf-9XEwG-4" value="Melihat data &lt;i&gt;MyCourse&amp;nbsp;&lt;/i&gt;saat &lt;i&gt;offline&lt;/i&gt;" style="ellipse;whiteSpace=wrap;html=1;" vertex="1" parent="C2JzApIpA7sHAra7oiWG-6">
          <mxGeometry x="12.5" y="255" width="170" height="80" as="geometry" />
        </mxCell>
        <mxCell id="TFS_bIiit2Vcpf-9XEwG-5" value="Melihat data &lt;i&gt;ClassSession&amp;nbsp;&lt;/i&gt;saat &lt;i&gt;offline&lt;/i&gt;" style="ellipse;whiteSpace=wrap;html=1;" vertex="1" parent="C2JzApIpA7sHAra7oiWG-6">
          <mxGeometry x="15" y="345" width="170" height="80" as="geometry" />
        </mxCell>
        <mxCell id="TFS_bIiit2Vcpf-9XEwG-6" value="Melihat data &lt;i&gt;Forum&amp;nbsp;&lt;/i&gt;saat &lt;i&gt;offline&lt;/i&gt;" style="ellipse;whiteSpace=wrap;html=1;" vertex="1" parent="C2JzApIpA7sHAra7oiWG-6">
          <mxGeometry x="15" y="435" width="170" height="80" as="geometry" />
        </mxCell>
        <mxCell id="C2JzApIpA7sHAra7oiWG-7" value="" style="group" parent="1" vertex="1" connectable="0">
          <mxGeometry x="210" y="1130" width="390" height="400" as="geometry" />
        </mxCell>
        <mxCell id="C2JzApIpA7sHAra7oiWG-4" value="" style="rounded=0;whiteSpace=wrap;html=1;" parent="C2JzApIpA7sHAra7oiWG-7" vertex="1">
          <mxGeometry width="390" height="400" as="geometry" />
        </mxCell>
        <mxCell id="C2JzApIpA7sHAra7oiWG-5" value="&lt;i&gt;LMS Backoffice &lt;/i&gt;BINUSMAYA 7" style="text;html=1;strokeColor=none;fillColor=none;align=center;verticalAlign=middle;whiteSpace=wrap;rounded=0;" parent="C2JzApIpA7sHAra7oiWG-7" vertex="1">
          <mxGeometry x="107.25" width="175.5" height="52.173913043478265" as="geometry" />
        </mxCell>
        <mxCell id="C2JzApIpA7sHAra7oiWG-8" value="Academic Operation" style="shape=umlActor;verticalLabelPosition=bottom;verticalAlign=top;html=1;outlineConnect=0;" parent="1" vertex="1">
          <mxGeometry x="740" y="230" width="30" height="60" as="geometry" />
        </mxCell>
      </root>
    </mxGraphModel>
  </diagram>
</mxfile>
